<svg width="25" height="25" viewBox="0 0 25 25" fill="none" xmlns="http://www.w3.org/2000/svg">
<path d="M3.95572 6.73267H5.95572H21.9557" stroke="#A61CEC" stroke-width="2" stroke-linecap="round" stroke-linejoin="round"/>
<path d="M8.95572 6.73267V4.73267C8.95572 4.20223 9.16643 3.69353 9.54151 3.31845C9.91658 2.94338 10.4253 2.73267 10.9557 2.73267H14.9557C15.4862 2.73267 15.9949 2.94338 16.3699 3.31845C16.745 3.69353 16.9557 4.20223 16.9557 4.73267V6.73267M19.9557 6.73267V20.7327C19.9557 21.2631 19.745 21.7718 19.3699 22.1469C18.9949 22.522 18.4862 22.7327 17.9557 22.7327H7.95572C7.42529 22.7327 6.91658 22.522 6.54151 22.1469C6.16643 21.7718 5.95572 21.2631 5.95572 20.7327V6.73267H19.9557Z" stroke="#A61CEC" stroke-width="2" stroke-linecap="round" stroke-linejoin="round"/>
<path d="M10.9557 11.7327V17.7327" stroke="#A61CEC" stroke-width="2" stroke-linecap="round" stroke-linejoin="round"/>
<path d="M14.9557 11.7327V17.7327" stroke="#A61CEC" stroke-width="2" stroke-linecap="round" stroke-linejoin="round"/>
</svg>
