<svg width="183" height="51" viewBox="0 0 183 51" fill="none" xmlns="http://www.w3.org/2000/svg">
<path d="M16.2949 18.1286H5.92543V43.904L0 50.764V0.513076H5.92543V12.3993H16.2949V0.513076H22.2204V32.242L16.2949 38.416V18.1286Z" fill="url(#paint0_linear)"/>
<path d="M44.9722 30.3569L43.023 23.2594H33.94L31.9908 30.3569H25.9874L34.9535 0.513076H42.2823L51.1315 30.3569H44.9722ZM38.54 6.41344H38.345L35.3433 17.7438H41.5806L38.54 6.41344Z" fill="url(#paint1_linear)"/>
<path d="M64.7092 30.87C62.864 30.87 61.2007 30.5565 59.7193 29.9294C58.238 29.2738 56.9775 28.3189 55.938 27.0647C54.8984 25.782 54.0928 24.2 53.521 22.3188C52.9493 20.409 52.6634 18.1857 52.6634 15.6488C52.6634 13.1404 52.9493 10.9171 53.521 8.97881C54.0928 7.01202 54.8984 5.37303 55.938 4.06184C56.9775 2.72215 58.238 1.71025 59.7193 1.02615C61.2007 0.342049 62.864 0 64.7092 0C67.2301 0 69.3092 0.570083 70.9465 1.71025C72.5838 2.82191 73.8962 4.58917 74.8838 7.01202L69.777 9.91945C69.4131 8.66526 68.8414 7.66762 68.0617 6.92651C67.3081 6.1569 66.1905 5.77209 64.7092 5.77209C62.9679 5.77209 61.5645 6.39918 60.499 7.65337C59.4595 8.87904 58.9397 10.6748 58.9397 13.0407V17.8293C58.9397 20.1952 59.4595 22.0052 60.499 23.2594C61.5645 24.4851 62.9679 25.0979 64.7092 25.0979C66.1645 25.0979 67.321 24.6703 68.1787 23.8152C69.0623 22.9316 69.712 21.8769 70.1278 20.6513L74.9617 23.7297C73.9482 26.01 72.6097 27.7773 70.9465 29.0315C69.3092 30.2572 67.2301 30.87 64.7092 30.87Z" fill="url(#paint2_linear)"/>
<path d="M88.5811 17.359L85.0337 22.0622V30.3569H79.1083V0.513076H85.0337V14.7081H85.2676L89.1269 8.93605L95.2472 0.513076H101.952L92.7913 12.7841L102.771 30.3569H95.793L88.5811 17.359Z" fill="url(#paint3_linear)"/>
<path d="M126.601 10.7746H126.484L124.496 15.1357L119.194 25.6965L114.009 15.1785L111.943 10.4753H111.826V30.3569H106.252V0.513076H112.528L119.194 14.4944H119.272L125.86 0.513076H132.175V30.3569H126.601V10.7746Z" fill="url(#paint4_linear)"/>
<path d="M138.192 30.3569V0.513076H156.709V6.28517H144.117V12.3993H154.916V18.1286H144.117V24.5848H156.709V30.3569H138.192Z" fill="url(#paint5_linear)"/>
<path d="M167.797 38.416L161.871 32.242V0.513076H174.775C176.022 0.513076 177.153 0.741108 178.166 1.19717C179.18 1.65324 180.037 2.30884 180.739 3.16396C181.467 3.99058 182.025 4.98823 182.415 6.1569C182.805 7.32557 183 8.62251 183 10.0477C183 12.0715 182.584 13.8388 181.753 15.3495C180.947 16.8602 179.712 17.9576 178.049 18.6417L181.753 50.764L175.491 45.276L172.046 19.4113H167.797V38.416ZM174.034 13.9385C174.917 13.9385 175.606 13.6962 176.1 13.2117C176.62 12.6986 176.88 11.9575 176.88 10.9884V9.10708C176.88 8.13794 176.62 7.41108 176.1 6.92651C175.606 6.41343 174.917 6.1569 174.034 6.1569H167.797V13.9385H174.034Z" fill="url(#paint6_linear)"/>
<path d="M48.0039 51C46.7962 51 45.7722 50.7968 44.9321 50.3903C44.0919 49.9708 43.3764 49.4332 42.7857 48.7776L44.7548 46.7913C45.6869 47.8402 46.8356 48.3646 48.2008 48.3646C48.936 48.3646 49.4808 48.2139 49.8352 47.9123C50.1897 47.6107 50.3669 47.2109 50.3669 46.7126C50.3669 46.3324 50.2619 46.0177 50.0518 45.7686C49.8418 45.5064 49.4151 45.3294 48.7719 45.2376L47.4132 45.0606C45.956 44.877 44.8861 44.4378 44.2035 43.7429C43.534 43.048 43.1992 42.1237 43.1992 40.9699C43.1992 40.3537 43.3174 39.7899 43.5537 39.2785C43.79 38.7672 44.1247 38.328 44.5579 37.9609C45.0043 37.5937 45.5425 37.3118 46.1726 37.1152C46.8159 36.9054 47.5444 36.8005 48.3584 36.8005C49.3954 36.8005 50.3078 36.9644 51.0955 37.2922C51.8831 37.62 52.5592 38.0985 53.1237 38.7279L51.1348 40.7339C50.8066 40.3537 50.4063 40.0455 49.9337 39.8095C49.4742 39.5604 48.89 39.4359 48.1811 39.4359C47.5116 39.4359 47.0128 39.5539 46.6846 39.7899C46.3564 40.0259 46.1923 40.3537 46.1923 40.7732C46.1923 41.2452 46.317 41.5861 46.5664 41.7959C46.829 42.0057 47.2491 42.1565 47.8267 42.2482L49.1854 42.4646C50.6032 42.6875 51.6534 43.1267 52.336 43.7823C53.0186 44.4247 53.36 45.3425 53.36 46.5356C53.36 47.1912 53.2418 47.7943 53.0055 48.345C52.7692 48.8956 52.4213 49.3677 51.9619 49.761C51.5155 50.1543 50.9576 50.4624 50.2881 50.6853C49.6186 50.8951 48.8572 51 48.0039 51Z" fill="#0098CF"/>
<path d="M69.3806 39.6915V50.764H66.3875V39.6915H62.6658V37.0365H73.1022V39.6915H69.3806Z" fill="#0098CF"/>
<path d="M88.4338 51C87.528 51 86.701 50.8492 85.9527 50.5477C85.2044 50.2461 84.5677 49.8003 84.0426 49.2103C83.5175 48.6072 83.1106 47.8664 82.8218 46.988C82.533 46.0964 82.3886 45.0672 82.3886 43.9003C82.3886 42.7334 82.533 41.7107 82.8218 40.8322C83.1106 39.9407 83.5175 39.1999 84.0426 38.6099C84.5677 38.0067 85.2044 37.5544 85.9527 37.2528C86.701 36.9513 87.528 36.8005 88.4338 36.8005C89.3396 36.8005 90.1666 36.9513 90.9149 37.2528C91.6632 37.5544 92.2999 38.0067 92.825 38.6099C93.3501 39.1999 93.757 39.9407 94.0458 40.8322C94.3346 41.7107 94.479 42.7334 94.479 43.9003C94.479 45.0672 94.3346 46.0964 94.0458 46.988C93.757 47.8664 93.3501 48.6072 92.825 49.2103C92.2999 49.8003 91.6632 50.2461 90.9149 50.5477C90.1666 50.8492 89.3396 51 88.4338 51ZM88.4338 48.345C89.3396 48.345 90.0419 48.05 90.5408 47.46C91.0527 46.87 91.3087 46.0243 91.3087 44.9229V42.8776C91.3087 41.7762 91.0527 40.9306 90.5408 40.3405C90.0419 39.7505 89.3396 39.4555 88.4338 39.4555C87.528 39.4555 86.8191 39.7505 86.3071 40.3405C85.8083 40.9306 85.5589 41.7762 85.5589 42.8776V44.9229C85.5589 46.0243 85.8083 46.87 86.3071 47.46C86.8191 48.05 87.528 48.345 88.4338 48.345Z" fill="#0098CF"/>
<path d="M108.241 50.764H105.248V37.0365H111.765C112.396 37.0365 112.967 37.1414 113.479 37.3512C113.991 37.561 114.424 37.8625 114.778 38.2559C115.146 38.6361 115.428 39.095 115.625 39.6325C115.822 40.1701 115.92 40.7667 115.92 41.4222C115.92 42.3531 115.71 43.166 115.29 43.8609C114.883 44.5558 114.26 45.0606 113.42 45.3753L116.117 50.764H112.789L110.387 45.7293H108.241V50.764ZM111.391 43.2119C111.838 43.2119 112.186 43.1005 112.435 42.8776C112.697 42.6416 112.829 42.3007 112.829 41.8549V40.9896C112.829 40.5438 112.697 40.2094 112.435 39.9865C112.186 39.7505 111.838 39.6325 111.391 39.6325H108.241V43.2119H111.391Z" fill="#0098CF"/>
<path d="M126.787 50.764V37.0365H136.14V39.6915H129.78V42.5039H135.234V45.1393H129.78V48.109H136.14V50.764H126.787Z" fill="#0098CF"/>
<defs>
<linearGradient id="paint0_linear" x1="91.5" y1="0" x2="91.5" y2="50.764" gradientUnits="userSpaceOnUse">
<stop offset="0.130208" stop-color="#A61CEC"/>
<stop offset="0.864583" stop-color="#0098CF"/>
</linearGradient>
<linearGradient id="paint1_linear" x1="91.5" y1="0" x2="91.5" y2="50.764" gradientUnits="userSpaceOnUse">
<stop offset="0.130208" stop-color="#A61CEC"/>
<stop offset="0.864583" stop-color="#0098CF"/>
</linearGradient>
<linearGradient id="paint2_linear" x1="91.5" y1="0" x2="91.5" y2="50.764" gradientUnits="userSpaceOnUse">
<stop offset="0.130208" stop-color="#A61CEC"/>
<stop offset="0.864583" stop-color="#0098CF"/>
</linearGradient>
<linearGradient id="paint3_linear" x1="91.5" y1="0" x2="91.5" y2="50.764" gradientUnits="userSpaceOnUse">
<stop offset="0.130208" stop-color="#A61CEC"/>
<stop offset="0.864583" stop-color="#0098CF"/>
</linearGradient>
<linearGradient id="paint4_linear" x1="91.5" y1="0" x2="91.5" y2="50.764" gradientUnits="userSpaceOnUse">
<stop offset="0.130208" stop-color="#A61CEC"/>
<stop offset="0.864583" stop-color="#0098CF"/>
</linearGradient>
<linearGradient id="paint5_linear" x1="91.5" y1="0" x2="91.5" y2="50.764" gradientUnits="userSpaceOnUse">
<stop offset="0.130208" stop-color="#A61CEC"/>
<stop offset="0.864583" stop-color="#0098CF"/>
</linearGradient>
<linearGradient id="paint6_linear" x1="91.5" y1="0" x2="91.5" y2="50.764" gradientUnits="userSpaceOnUse">
<stop offset="0.130208" stop-color="#A61CEC"/>
<stop offset="0.864583" stop-color="#0098CF"/>
</linearGradient>
</defs>
</svg>
